<svg width="25" height="21" viewBox="0 0 25 21" fill="none" xmlns="http://www.w3.org/2000/svg">
<path d="M8.05475 14.0002H8.05589C8.05684 14.0002 8.0578 14 8.05875 14H21.3379C21.6648 14 21.9523 13.7927 22.0421 13.4923L24.9718 3.69232C25.0349 3.48104 24.9907 3.25391 24.8524 3.07854C24.7139 2.90318 24.4975 2.8 24.2676 2.8H6.3656L5.84203 0.548151C5.76745 0.227865 5.47028 0 5.12696 0H0.732423C0.327874 0 0 0.313359 0 0.7C0 1.08664 0.327874 1.4 0.732423 1.4H4.5395C4.63219 1.79904 7.04499 12.1762 7.18385 12.7732C6.40546 13.0966 5.85939 13.8383 5.85939 14.7C5.85939 15.8579 6.8451 16.8 8.05665 16.8H21.3379C21.7425 16.8 22.0703 16.4866 22.0703 16.1C22.0703 15.7134 21.7425 15.4 21.3379 15.4H8.05665C7.65287 15.4 7.32423 15.0859 7.32423 14.7C7.32423 14.3146 7.65172 14.0011 8.05475 14.0002ZM23.2966 4.2L20.7854 12.6H8.64412L6.69099 4.2H23.2966Z" fill="black"/>
<path d="M7.32423 18.9C7.32423 20.0579 8.30995 21 9.5215 21C10.733 21 11.7188 20.0579 11.7188 18.9C11.7188 17.7421 10.733 16.8 9.5215 16.8C8.30995 16.8 7.32423 17.7421 7.32423 18.9ZM9.5215 18.2C9.92528 18.2 10.2539 18.5141 10.2539 18.9C10.2539 19.2859 9.92528 19.6 9.5215 19.6C9.11771 19.6 8.78907 19.2859 8.78907 18.9C8.78907 18.5141 9.11771 18.2 9.5215 18.2Z" fill="black"/>
<path d="M17.6758 18.9C17.6758 20.0579 18.6615 21 19.8731 21C21.0846 21 22.0703 20.0579 22.0703 18.9C22.0703 17.7421 21.0846 16.8 19.8731 16.8C18.6615 16.8 17.6758 17.7421 17.6758 18.9ZM19.8731 18.2C20.2769 18.2 20.6055 18.5141 20.6055 18.9C20.6055 19.2859 20.2769 19.6 19.8731 19.6C19.4693 19.6 19.1406 19.2859 19.1406 18.9C19.1406 18.5141 19.4693 18.2 19.8731 18.2Z" fill="black"/>
</svg>
